# xmcd
# 
# Track frame offsets:
#     150
#     22229
#     43816
# 
# Disc length: 828
# 
# Revision: 0
# Processed by: cddbd v1.5.2PL0 Copyright (c) Steve Scherf et al.
# Submitted via: BonkEnc v1.0beta4
# 
DISCID=24033a03
DTITLE=Scissor Sisters - 架空の想い出
DYEAR=1997
DGENRE=JPop
TTITLE0=架空の想い出I dont feel  like dancing
TTITLE1=DON'T FORGET ME
TTITLE2=NO PROBLEM
EXTD=YEAR: 1997.08.01
EXTT0=
EXTT1=
EXTT2=
PLAYORDER=
